<?xml version="1.0" encoding="UTF-8"?><svg id="Layer_2" xmlns="http://www.w3.org/2000/svg" viewBox="0 0 306 132.42"><g id="Layer_1-2"><g><path d="M98.61,81.74c-.87-15.71-1.9-34.82-1.8-48.8h-.46c-3.9,13.13-8.59,27.39-14.24,42.89l-19.98,54.89h-11.03l-18.44-53.88c-5.39-15.99-9.78-30.5-12.95-43.9h-.4c-.4,14.1-1.13,32.94-2.22,49.92l-3.01,48.57H.2L8.08,18.28H26.74l19.27,54.77c4.66,13.85,8.46,26.31,11.4,38.12h.44c2.97-11.45,6.92-23.93,11.97-38.1l20.18-54.78h18.69l7.02,113.15h-14.37l-2.72-49.69Z"/><path d="M153.66,131.42L110.62,0h13.32c3.06,0,5.76,1.98,6.68,4.9l18.88,59.9c5.64,17.72,10.51,33.74,14.05,49.04h.46c3.68-15.19,9.07-31.72,14.96-48.83L199.57,4.74c.97-2.83,3.63-4.74,6.62-4.74h13.14l-46.95,131.42h-18.73Z"/><path d="M231.57,19.83c6.46-1.41,16.55-2.43,26.69-2.43,14.67,0,24.04,2.48,31.06,8.21,5.85,4.44,9.45,11.17,9.45,20.04,0,10.94-7.29,20.56-19.13,24.78v.44c10.76,2.59,23.36,11.47,23.36,28.39,0,9.66-3.84,17.13-9.68,22.53-7.79,7.32-20.53,10.63-39.07,10.63-10.13,0-17.78-.71-22.69-1.26V19.83Zm14.6,46.35h13.4c15.29,0,24.35-8.14,24.35-19.11,0-13.12-9.94-18.43-24.73-18.43-6.78,0-10.63,.5-13.01,1.05v36.48Zm0,54.12c2.99,.6,7.03,.74,12.31,.74,15.18,0,29.12-5.55,29.12-22.01,0-15.38-13.32-21.83-29.27-21.86h-12.16v43.13Z"/></g><rect width="122" height="14"/><rect x="208" width="98" height="13.9"/></g></svg>