<?xml version="1.0" encoding="UTF-8"?>
<svg id="Layer_2" data-name="Layer 2" xmlns="http://www.w3.org/2000/svg" viewBox="0 0 100 100">
  <defs>
    <style>
      .cls-1 {
        fill: #000;
      }

      .cls-1, .cls-2 {
        stroke-width: 0px;
      }

      .cls-2 {
        fill: #fff;
      }
    </style>
  </defs>
  <g id="Layer_1-2" data-name="Layer 1">
    <g>
      <path class="cls-2" d="M50,99.5C22.71,99.5.5,77.29.5,50S22.71.5,50,.5s49.5,22.21,49.5,49.5-22.21,49.5-49.5,49.5Z"/>
      <path class="cls-1" d="M50,1c27.02,0,49,21.98,49,49s-21.98,49-49,49S1,77.02,1,50,22.98,1,50,1M50,0C22.39,0,0,22.39,0,50s22.39,50,50,50,50-22.39,50-50S77.61,0,50,0h0Z"/>
    </g>
  </g>
</svg>