<?xml version="1.0" encoding="UTF-8"?><svg id="Layer_1" xmlns="http://www.w3.org/2000/svg" viewBox="0 0 447.99 573.64"><defs><style>.cls-1{fill:#fff;}.cls-2{fill:#06091e;}.cls-3{fill:#231715;}.cls-4{fill:#cb1f26;}.cls-5{fill:#f3efea;}.cls-6{fill:#3e4b87;}.cls-7{fill:#2a2a5e;}.cls-8{fill:#60412a;}</style></defs><path class="cls-2" d="M434.88,258.73c-5.84-14.41-14.24-27.77-21.42-41.64-.45-.87-.61-1.89-.9-2.84,.89,0,1.79-.07,2.67,.02,3.8,.39,7.59,.83,11.38,1.25-21.68-16.71-39.15-36.82-58.33-55.1-2.29-2.18-1.96-3.95-1.33-6.52,2.45-9.88,4.62-19.83,6.91-29.74,.19-.81,.46-1.6,.69-2.39,.69,.45,1.44,.84,2.07,1.37,.92,.77,1.76,1.63,2.63,2.45,.32-1.29,1-2.61,.91-3.87-.64-9.25-.39-18.72-2.39-27.68-6.09-27.31-20.83-49.06-44.97-63.7-11.4-6.92-23.3-7.71-35.44-.7-10.19,5.89-20.89,10.89-31.23,16.54-3.09,1.69-5.43,1.99-8.58-.05-18.22-11.8-38.1-14.61-59.36-11.19-10.72,1.73-21.63,2.28-32.48,3.06-2.32,.17-4.89-.64-7.08-1.6-18.23-7.98-36.39-16.1-54.57-24.19-3.49-1.55-7.3-2.67-10.36-4.83-12.63-8.89-25.66-9.99-38.83-1.94-6.89,4.21-13.89,5.83-21.87,5.79-14.48-.07-24.72,8.4-27.08,22.67-1.01,6.1-.81,12.75,.52,18.79,1.09,4.95,.81,9.16-.69,13.77-9.15,28.16-7.9,55.56,7.66,81.22,5.27,8.7,8.6,17.74,11.06,27.45,8.51,33.6,11.25,67.49,6.29,101.89-1,6.94-1.94,13.89-3.07,22.04,5.21-4.75,9.33-8.6,13.56-12.34,1.8-1.6,3.81-2.97,5.72-4.44,.29,2.58,1.14,5.24,.79,7.74-2.65,19.3-5.16,38.63-8.4,57.83-5.72,33.87,1.58,64.38,22.52,91.55,17.15,22.26,39.1,39.1,62.66,53.84,25.35,15.87,51.33,30.73,76.68,46.62,13.45,8.43,26.35,17.89,34.8,31.91,2.06,3.41,3.12,1.5,4.83-.22,10.77-10.73,21.21-21.84,32.55-31.94,24.9-22.19,50.28-43.84,75.45-65.73,4.04-3.51,8-7.11,13.21-11.75-1.65,8.3-3.01,14.93-4.27,21.58-.25,1.3-.11,2.68-.14,4.03,1.28-.68,2.77-1.12,3.8-2.07,21.38-19.83,40.81-41.32,56.41-66.08,32.02-50.83,39.91-104.39,17.04-160.83Z"/><polygon class="cls-7" points="210.15 96.61 210.89 96.72 217.98 100.7 213.47 99.69 209.98 98.7 210.15 96.61"/><path class="cls-6" d="M353.67,81.7c2.05,7.85,4.99,15.59,2.99,23.94-2.32,9.86-3.05,20.12-7.28,29.51-.28,.62-.5,1.26-.76,1.89-5.22,12.81-6.6,13.24-17.68,5.44-.93-.65-1.83-1.35-2.76-1.99-2.63-1.82-3.67-1.11-3.27,2.02,.83,6.55,.38,13.14,.45,19.71,.26,26.73-5.57,52.11-16.87,76.29l.1-.11c-.38,.29-.51,.58-.41,.89,.11,.31,.22,.47,.34,.47l-.03,1.36-.07-.05c1.68-.93,3.68-1.55,4.99-2.85,12.57-12.6,23.34-26.48,29.87-43.26,.16-.42,.38-.82,.57-1.24,2.48-5.33,3.18-5.69,6.38-.8,3,4.57,3.16-.1,4.56-.81,6.37,2.42,9.89,8.1,14.04,12.86,15.28,17.56,31.19,34.46,48.77,49.74l-.09-.09c.6,1.15,1.46,2.17,1.87,3.42-5.06-.13-10.12-.24-15.18-.41q-8.2-.27-6.78,7.7c5.42,15.92,5.83,32.4,5.4,48.96-.05,1.79-.3,3.79-2.21,4.66-2.12,.96-3.49-.62-4.52-2.05-2.78-3.84-3.48-1.57-4.38,1.25-3.31,10.37-7.27,20.48-12.11,30.26-7.17,14.49-16.68,27.42-26.27,40.32-1.4,1.88-3.03,3.45-5.71,2.34,5.29-15.36,11.32-30.51,15.6-46.15,3.01-11,3.93-22.62,5.22-34.03,3.15-27.74-1.75-54.87-6.91-81.94-.87-1.04-1.66-1.23-2.32,.19l-.18,3.78c-.21,1.81-.07,3.64-.31,5.45v4c-3.03,11.81-5.16,23.81-7.91,35.68-.56,2.42-.77,4.95-1.68,7.27-1.7,4.36-3.67,4.6-6.67,.91-1-1.23-1.68-2.68-2.5-4.04-.8-1.33-1-3.01-1.94-3.83-6.12,15.95-12.2,32-19.65,47.52-8.72,18.16-17.32,36.37-28.39,53.27-1.51,2.3-2.34,5.65-6.25,5.09,3.2-20.61,5.23-41.29,4.2-62.18-.05-1.09,0-2.19-.59-3.75-16.39,45.95-46.1,77.96-94.48,92.31,9.24-8.22,17.97-15.31,25.92-23.19,19.37-19.21,29.83-42.64,32.68-69.8,3.01-28.74-5.12-54.51-19.53-78.82-.67-1.14-1.67-2.08-2.51-3.12l.06-.07c1,12.6,2.31,25.19,2.91,37.81,.41,8.76,.64,17.66-.5,26.31-1.25,9.56-4.13,18.9-6.35,28.32-.31,1.31-.88,2.57-1.46,3.79-.27,.56-.85,.96-1.29,1.44-.49-.63-1.28-1.2-1.41-1.89-1.39-7.31-2.63-14.65-4.01-21.96-1.89-9.98-3.86-19.94-5.8-29.91-2.08-1.74-2.75-4.12-2.85-6.67-.27-7.02-.36-14.05,0-21.06,.29-5.71,1.73-6.43,6.74-4.26,1.51,.65,2.99,2.98,4.69,1.15,1.27-1.37,.17-3.47-.18-5.21-4.95-24.88-14.25-48.13-26.31-70.34-.65-1.19-1.44-2.31-2.03-3.53-.7-1.43-1.54-3.01-.42-4.47,1.34-1.75,3.26-1.09,5.02-.68,3.95,.93,7.2,3.62,12.4,4.88-13.34-18.56-28.02-34.23-45.85-46.85-14.43-12-29.61-22.92-46.81-30.65-8.58-3.86-17.43-7.16-27.53-6.42,2.16,1.42,4.45,2.68,6.41,4.33,1,.85,1.4,2.42,2.06,3.67-1.27,0-2.54,.08-3.81,0-.88-.05-1.75-.31-2.63-.48-9.62-4.59-15.88-11.91-17.72-22.52-.97-5.59,1.72-10.28,6-11.63,4.82-1.53,8.52,.56,11.59,6.53,.31,2.56,1.51,2.91,3.66,1.66,5.26-3.05,8.34-7.67,8.63-13.6,.2-4.18-.78-8.41-1.23-12.62l-.05,.05c12.47,7.61,20.04,19.55,28.77,31.2-.67-3.89-1.16-7.82-2.06-11.66-.91-3.89-2.23-7.69-3.37-11.54,2.25-1.56,4.42-.44,6.43,.41,28.64,12.15,56.02,26.42,79.43,47.35l-.12-.11c1.2,1.87,3.45,2.37,4.96,3.83,.41,.41,.74,.89,1,1.4,.21,.87-.79,.74,.09,.58,.47-.08,.56-.85,.91-1.24,.56-8.48,2.02-9.74,10.93-8.59,4.28,.56,8.52,1.21,12.86,1.11,3.08-.07,3.53-1.16,2-3.71-1.86-3.08-3.3-6.45-6.61-8.38-1.13-2.11-2.26-4.22-3.39-6.33,2.42,.28,4.83,.59,7.26,.82,1,.09,2.02,.02,3.04,.02,.18-.44,.35-.88,.53-1.32-4.81-2.71-9.63-5.42-14.44-8.14-5.07-3.26-11.14-3.58-16.62-5.63-1.97-.74-5.28-.59-5.01-3.34,.24-2.4,3.4-2.78,5.57-3.04,8.01-.95,15.69,.64,23.14,3.53,11.47,1.93,20.4,8.96,29.83,14.95,4.49,2.85,8.92,5.81,13.38,8.72l.06-.06-1.45-7.4c-.25-2.29,1.48-3.23,3.04-4.04,9.06-4.73,17.7-10.2,26.72-14.99,5.56-2.95,10.85-2.77,16.28-.09,12.27,6.05,22.39,14.48,29.2,26.55Z"/><path class="cls-7" d="M162.75,122.5c5.58,3.61,12.05,6.36,16.57,11,10.71,10.98,20.53,22.82,30.59,34.41,.87,1,.9,2.73,1.32,4.12-1.43-.25-2.96-.25-4.27-.79-3.97-1.63-7.83-3.51-11.79-5.18-.94-.4-2.07-.34-3.11-.49,.26,.97,.33,2.05,.82,2.88,9.54,15.93,16.94,32.85,22.53,50.5,2.99,9.42,4.87,19.19,7.09,28.85,.33,1.44-.26,3.09-.42,4.64-1.71-.48-3.52-.74-5.09-1.5-1.39-.67-2.42-2.04-3.77-2.85-1.76-1.05-2.99-.79-2.89,1.69,.42,9.92,.81,19.85,1.21,29.77-.85,5.91-1.7,11.82-2.53,17.73-2,14.22-3.27,28.59-6.18,42.63-2.59,12.49-10.46,21.4-23.28,24.88-4.97,1.35-10.1,2.08-15.14,3.15-.81,.17-1.56,.63-2.33,.95,.78,.55,1.56,1.55,2.35,1.57,6.66,.13,13.33,.08,20,.08l.07,.08c-2.84,5.52-8.51,6.07-13.56,7.39-18.42,4.81-35.36,1.71-50.46-10.13-.96-.75-1.55-1.98-2.32-2.99,1.2,.02,2.42-.09,3.6,.1,2.8,.44,5.59,1.02,6.88,1.27-2.1-2.52-4.64-5.93-7.55-8.99-7.3-7.69-7.38-17.62-8.69-27.16-.14-1.04,.63-2.22,.97-3.33,.51,1.15,1.26,2.25,1.47,3.45,.47,2.65,.44,5.4,1.03,8.01,3.4,14.94,13.69,20.37,27.65,21.21,8.05,.49,16.32-.17,24.3-1.46,11.71-1.89,17.71-10.7,20.59-21.12,3.05-11.02,5.78-22.35,6.66-33.71,1.71-22.07,2.07-44.25,2.9-66.39,.12-3.31-.26-6.64-.41-9.96,2.77,1.31,5.52,2.67,8.31,3.92,3.01,1.34,3.05-.07,2.23-2.42-3.36-9.57-6.45-19.25-10.06-28.73-6.55-17.18-15.16-33.3-25.67-48.4-.23-.33-.14-.88-.2-1.33l.02-.02c5.6,2.21,11.19,4.44,16.8,6.62,.93,.36,1.94,.52,2.91,.76-.32-.96-.38-2.15-1-2.84-7.91-8.95-15.91-17.82-23.86-26.73-1.49-1.67-2.87-3.42-4.31-5.13Z"/><path class="cls-7" d="M347.61,391.07c1.33-.81,3.12-1.3,3.93-2.46,11.94-17.07,24.44-33.84,32.22-53.39,2.9-7.29,5.15-14.85,7.71-22.28,.32-.93,.76-1.81,1.15-2.71,.7,.53,1.49,.97,2.08,1.6,1.87,2.03,3.67,4.13,5.49,6.2,.31-2.83,1.07-5.69,.84-8.47-1.14-13.86-2.55-27.69-3.83-41.54-.08-.88,.12-1.79,.19-2.68,.77,.74,1.88,1.34,2.27,2.24,10.04,23.74,14.38,48.58,12.09,74.18-1.62,18.02-6.56,35.44-14.15,51.98-.52,1.13-1.57,2.01-2.37,3-.3-1.17-.82-2.33-.86-3.51-.5-12.12-.93-24.24-2.6-36.62-1.2,3.28-2.3,6.6-3.62,9.84-8.02,19.58-19.4,37.07-32.76,53.42-15.35,18.79-33,35.14-51.92,50.18-2.92,2.32-6.62,3.67-9.95,5.47l-.08-.08c1.19-1.85,2.31-3.74,3.58-5.53,10.43-14.69,21.36-29.05,31.18-44.13,7.22-11.09,13-23.12,19.42-34.72Z"/><path class="cls-7" d="M198.09,513.64c-8.67-.5-14.9-6.4-21.67-10.55-23.73-14.53-43.19-33.39-55.37-58.92-.27-.57-.74-1.06-2.06-2.9-.46,7.43-.84,13.54-1.24,19.64-.06,.87-.27,1.73-.41,2.59-.94-.46-2.26-.66-2.76-1.41-6.36-9.56-13.76-18.65-18.56-28.95-5.46-11.74-8.57-24.58-12.71-36.94-.5-1.48-1.09-2.93-2.72-4.52-.47,2.26-.99,4.51-1.39,6.78-1.58,9.09-3.89,18.14-1.16,27.43,.31,1.05,.18,2.26,.1,3.39-.04,.56-.44,1.09-.68,1.64-.54-.33-1.29-.54-1.58-1.02-7.8-13.07-15.06-26.54-17.93-41.56-3.42-17.83-2.68-35.86,.68-53.74,1.04-5.53,2.1-11.06,3.19-16.58,.16-.8,.5-1.56,.76-2.34,.75,.43,1.74,.68,2.21,1.32,4.17,5.68,9.02,10.5,6.87,19.18-2.25,9.08-2.18,18.75-2.9,28.19-.1,1.28,1.09,2.66,1.68,3.99,.71-1.11,1.48-2.19,2.13-3.34,3.18-5.69,6.29-11.42,9.54-17.07,.33-.57,1.37-.73,2.08-1.08,.24,.6,.63,1.18,.71,1.8,3.33,23.84,10.24,46.68,19.19,68.94,.91,2.27,1.99,4.47,3.55,7.95,1.35-4.46,2.2-7.66,3.3-10.78,.62-1.76,1.63-3.37,2.47-5.05,.79,1.56,1.78,3.04,2.35,4.68,5.25,15.05,12.93,28.87,21.89,41.93,15,21.88,33.43,40.31,56.43,53.9,1.49,.88,2.69,2.27,4.02,3.42h0Z"/><path class="cls-4" d="M153.12,229.87c.42,2.85,.87,4.09,.74,5.26-.54,4.69-1.45,9.34-1.83,14.03-.13,1.58,.92,3.26,1.43,4.89,1.11-1.37,2.38-2.65,3.32-4.13,3.13-4.95,5.75-10.28,9.33-14.87,2.73-3.49,6.56-6.15,10.04-9.02,.74-.61,2.06-.53,3.11-.77-.03,1.01,.26,2.17-.13,3.01-5.64,11.99-6.31,25.03-6.69,37.77-.51,17.24-8.13,29.13-22.78,37.32-4.1,2.29-6.76,2.36-10.51-1.52-7.57-7.83-9.66-16.3-7.03-26.66,3.59-14.11,8.15-27.76,16.49-39.88,.98-1.42,2.21-2.67,4.52-5.43Z"/><path class="cls-7" d="M283.72,384.25c5.12-7.86,10.87-15.38,15.24-23.64,12.28-23.22,24.07-46.71,32.81-71.58,.22-.63,.61-1.2,.88-1.81,1.62-3.66,3.24-7.32,4.85-10.99,2.21,3.15,4.38,6.33,6.65,9.44,.56,.77,1.47,1.28,2.22,1.91,.49-1.01,1.2-1.98,1.42-3.05,2.4-11.42,4.58-22.89,7.15-34.27,.63-2.77,2.47-5.26,3.76-7.87-1.01,12.13-1.66,24.29-3.13,36.36-1.06,8.7-3.18,17.26-4.88,25.88-.34,1.73-.92,3.41-1.76,6.43-3.09-7.04-5.65-12.89-8.63-19.67-1.3,3.39-2.48,5.83-3.17,8.39-6.7,24.95-15.92,48.94-27.33,72.08-7.65,15.51-18,29.21-29.26,42.25-.74,.86-1.52,1.73-2.44,2.36-.86,.59-1.93,.88-2.91,1.3-.1-1.05-.51-2.19-.24-3.14,2.86-10.14,5.83-20.25,8.76-30.37Z"/><path class="cls-7" d="M15.69,94.15c.33-2.44,.83-4.87,.95-7.32,.18-3.74,.73-6.53,5.52-4.12,.83,.42,2.13-.12,3.21-.21-.28-1.04-.47-2.13-.87-3.12-2.7-6.67-1.88-10.86,2.86-14.23,4.56-3.24,11.54-2.55,16.12,1.58,6.94,6.26,9.35,14.76,11.5,23.37,.49,1.96,.8,3.98,.98,5.99,.54,6.03,1.87,12.08-3.92,16.91-2.09,1.74-2.78,5.12-4.28,7.65-.61,1.03-1.7,1.77-2.57,2.64-.36-.99-.91-1.95-1.05-2.97-.54-3.79-.85-7.61-1.52-11.37-.1-.59-1.65-.92-2.53-1.36-3.18,6.03-5.23,12.43-6.5,19.12-.53,2.8-.68,6.67-4.13,7.09-3.94,.48-4.56-3.72-6.01-6.37-5.66-10.36-6.9-21.78-7.75-33.27Z"/><path class="cls-7" d="M98.58,333.83c-5.9-5.46-12.49-10.36-17.58-16.5-15.34-18.46-22.28-40.44-24.93-63.97-.01-.11-.31-.19-.78-.45-2.22,2.94-4.41,5.98-6.78,8.88-.57,.69-1.73,.89-2.62,1.32,.05-.87-.08-1.79,.18-2.59,3.42-10.49,4.15-21.32,3.42-32.19-.76-11.23-2.25-22.4-3.34-33.61-.11-1.14,.33-2.34,.52-3.51,.88,.58,2,.99,2.61,1.78,3.74,4.82,7.44,9.67,10.99,14.63,.86,1.21,1.47,2.83,1.58,4.31,.56,7.43,1.08,14.87,1.31,22.32,.62,19.79,4.03,39.02,11.21,57.5,1.11,2.85,2.94,5.42,4.68,8.57,.58-14.24,1.14-27.87,1.69-41.5l.83,.03c.68,7.99,1.22,15.99,2.06,23.96,1.72,16.34,6.54,31.77,13.81,46.48,.67,1.36,.83,2.97,1.22,4.46l-.09,.09Z"/><path class="cls-7" d="M85.03,200.2c5.6,3.14,11.22,6.24,16.79,9.45,1.28,.74,2.36,1.82,4.69,2.08-3.27-8.77-6.51-17.56-9.83-26.31-.64-1.69-1.73-3.2-2.35-4.89-.31-.86-.05-1.93-.04-2.91,.66,.52,1.47,.93,1.95,1.58,4.18,5.59,8.78,10.94,12.34,16.9,10.37,17.39,16.84,36.35,21.18,56.06,.2,.92-.33,2-.51,3.01-.88-.63-2-1.09-2.6-1.92-2.11-2.93-3.95-6.06-6.09-8.97-.98-1.34-2.42-2.33-3.65-3.49-.15,1.73-.53,3.48-.42,5.19,.29,4.49,1.11,8.96,1.11,13.44,0,4.44-.74,8.88-1.15,13.27-6.26-16.17-12.17-32.22-18.73-48-2.74-6.59-6.93-12.58-10.37-18.89-.96-1.76-1.6-3.69-2.38-5.55l.06-.07Z"/><path class="cls-5" d="M308.49,238.51c1.69-5.58,3.27-11.2,5.1-16.74,8.18-24.83,11.71-50.25,9.79-76.37-.25-3.34-.53-6.69-.8-10.03,3.07,1.79,6.15,3.59,9.22,5.39,.39,.23,.76,.5,1.13,.75,9.32,6.36,9.7,6.5,13.41-4.02,3.38-9.57,5.77-19.49,8.67-29.23,.28-.95,1.09-1.76,1.65-2.63-1.03,17.57-5.05,34.45-11.76,50.69-2.16,5.24-2.23,5.12-6.59,1.44-1.98-1.68-4.23-3.05-6.35-4.56-.26,2.46-.54,4.91-.76,7.37-2.13,22.89-6.08,45.35-16.05,66.33-1.91,4.02-4.42,7.74-6.66,11.6Z"/><path class="cls-5" d="M417.59,254.72c-3.27-2.18-7.02-3.89-9.72-6.64-13.28-13.53-26.3-27.31-39.36-41.06-4.65-4.9-9.16-9.94-13.73-14.92,1.53-4.42,3.05-8.84,4.58-13.26,2.92,3.05,6.11,5.89,8.7,9.2,9.56,12.25,19.04,24.57,28.32,37.04,7.25,9.74,14.15,19.74,21.21,29.63Z"/><path class="cls-5" d="M86.37,32.87c-6.33-8.79-14.43-10.07-23.43-4.17-5.26,3.45-10.66,6.99-16.49,9.14-4.03,1.49-8.97,1.25-13.41,.79-10.73-1.12-13.04,.04-16.67,10.05-6.99-8.98,2.21-22.59,11.69-21.72,10.33,.95,19.6-1.72,28.67-6.52,3.63-1.92,8.24-2.68,12.42-2.76,10.24-.19,16.15,4.88,18.75,15.09-.49,.39-1,.43-1.54,.1Z"/><path class="cls-5" d="M353.67,81.7c-3.95-4.21-7.46-8.99-11.97-12.5-6.51-5.06-13.53-9.6-20.8-13.51-2.5-1.35-6.94-1.25-9.52,.08-11.18,5.78-22,12.27-32.96,18.5-1.62-2.6-3.46-5.1-4.71-7.87-.33-.73,.86-2.8,1.86-3.37,10.63-6.02,21.38-11.85,32.07-17.77,4.33-2.4,8.42-.95,12.31,.91,15.74,7.53,27.31,19.08,33.71,35.51Z"/><path class="cls-5" d="M210.54,96.61c-1.89-1.08-3.95-1.95-5.65-3.28-22.38-17.54-46.89-31.41-73.13-42.25-2.28-.94-4.72-1.49-7.08-2.23-2.66-4.6-5.33-9.2-8.85-15.29,7.1,3.25,12.79,5.71,18.36,8.42,26.53,12.9,51.32,28.41,72.55,49.13,1.56,1.53,2.55,3.65,3.8,5.49Z"/><path class="cls-6" d="M15.69,94.15c.82,3.18,2.41,6.38,2.33,9.53-.27,9.97,5.62,17.71,8.82,26.42,.4,1.08,1.64,1.86,2.5,2.78,.6-1.12,1.43-2.18,1.75-3.38,1.15-4.3,1.71-8.81,3.32-12.92,1.27-3.24,3.75-6.01,5.69-8.99-.97,5.09-2.2,10.15-2.86,15.28-1.9,14.58,3.67,27.08,11.3,38.95,5.63,8.75,11.32,17.47,16.68,26.39,1.75,2.91,2.53,6.4,2.81,9.96-6.88-9.48-13.92-18.85-20.59-28.47-7.72-11.13-15.41-22.3-22.56-33.8-7.91-12.73-10.3-26.91-9.17-41.74Z"/><path class="cls-7" d="M90.32,65.34c-.88-.69-1.9-1.26-2.61-2.1-2.82-3.35-6.27-4.83-10.08-2.24-3.49,2.38-4.13,6.28-3.16,10.23,1.73,7.02,5.44,12.76,11.36,17.08,1.74,1.27,3.09,3.08,4.62,4.64-9.19,4.87-16.14,2.85-21.16-5.7-4.2-7.15-5.52-14.77-4.72-22.85,1.02-10.36,10.86-17.3,19.42-13.81,5.6,2.28,8.5,9.03,6.33,14.74Z"/><path class="cls-5" d="M70.11,123.73c0,1.12,.13,2.71-.07,4.27-.07,.51-1.22,1.41-1.46,1.29-8.46-4.11-3.1,2.38-3.31,4.39-.11,1.04,.33,2.13,.77,4.61-3.24-2.55-5.65-4.12-7.67-6.1-2.58-2.53-2.5-7.14-.15-9.75,3.31-3.69,8.02-4.54,13.77-8.46,6.44-4.4,13.65-1.79,20.13-5.13,5.24-2.7,12.87,6.56,10.86,12.35-.2,.59-1.93,1.19-2.65,.94-1.45-.51-2.6-1.92-4.05-2.4-3.87-1.29-7.6,4.39-11.64,.36-.31,.83-.82,1.65-.89,2.51-.24,2.8-1.55,1.99-2.94,.95-1.87-1.4-3.71-4.09-5.26,.48-.15,.45-3.45-.17-5.43-.3Z"/><path class="cls-5" d="M136.46,333.8c.75-1.57,.97-4.67,3.55-1.43,1.15,1.44,1.74,2.42,3.27,.19,3.2-4.66,3,3.12,5.48,1.64,1.59-.95-.4-6.57,3.98-3.49,3.35,2.36,3.63,1,3.74-1.88,.09-2.38,.77-3.73,3.06-1.51,3.32,3.22,3.77,1.23,3.95-1.97,.06-1.15,.85-2.27,1.3-3.4,.96,.95,2.45,1.74,2.78,2.87,.69,2.35,1.38,5,.92,7.3-.38,1.87-2.09,4.06-3.81,4.95-8.27,4.27-16.43,9.95-26.44,4.72-2.69-2.2-3.84-4.74-1.78-8Z"/><path class="cls-7" d="M236.61,58.07c-3.74-.52-7.47-1.32-11.23-1.5-5.48-.26-10.99-.07-16.37,.87,5.98,2.15,11.99,4.23,17.92,6.53,1.04,.4,1.75,1.69,2.61,2.58-11.56-1.3-23.13-2.54-34.68-3.95-2.12-.26-4.47-.78-6.13-1.98-1.88-1.36-3.1-3.63-4.61-5.5,2.14-.25,4.28-.47,6.41-.74,6.22-.8,12.43-2.26,18.65-2.28,9.48-.02,19.21-.14,27.45,5.97Z"/><path class="cls-5" d="M113,120.56l-1.91-5.62c2.26,.63,4.65,1,6.77,1.96,3.27,1.49,4.91,4.12,5.53,7.87,1.46,8.81,.28,17.33-1.88,25.99-3.68-11.7-13.61-20.44-15.61-34.54,2.73,2.52,4.3,3.97,5.87,5.42,.4-.1,.7,.03,.9,.39l.52-.15s-.47-.27-.48-.27c-.15-.42-.05-.77,.29-1.04Z"/><path class="cls-5" d="M171.04,299.92c8.46,8.79,10.61,18.97,9.93,29.87-.13,2.15-1.82,4.54-3.44,6.17-2.46,2.47-5.78,1.24-6.48-2.12-.22-1.09-.01-2.26-.01-3.4,0-9.93,0-19.85,0-30.53Z"/><path class="cls-7" d="M236.55,81.5c2.95,.92,11.53,10.09,11.2,12.3-.09,.61-1.61,1.45-2.45,1.43-4.94-.11-9.88-.43-14.82-.73-2.02-.12-4.03-.47-6.04-.5-3.84-.07-8.07-.65-4.23,5.61,1.33,2.17-.64,3.57-3.25,2.6-.45,.31-.86,.27-1.24-.12l.15,.1c-.49-.54-.76-1.22-1.06-1.87-.2-.44-.37-.88-.52-1.34-.05-.24-.09-.47-.13-.71-.69-2.01-1.05-4.22-2.14-5.98-1.4-2.26-2.03-3.87,1.44-3.81,6.73,.12,13.46,.51,20.19,.75,1.97,.07,3.94,.02,5.9,.03-.61-1.8-1.18-3.61-1.84-5.39-.3-.82-.77-1.59-1.16-2.38Z"/><path class="cls-5" d="M66.07,150.13l2.45-6.15c1.66,9.27,3.13,17.42,4.59,25.57-7.3-5.6-13.35-11.89-15.23-21.09-.45-2.22-1.07-4.44-1.23-6.68-.13-1.82,.31-3.67,.5-5.51,1.64,1.1,4.07,1.84,4.76,3.37,1.45,3.21,1.98,6.83,2.89,10.28,.28,.92,.71,.91,1.26,.21Z"/><path class="cls-5" d="M135.91,341.98c-.88,.36-2.37,1.22-2.54,1.01-2.38-2.97-5.34-5.8-6.67-9.23-2.46-6.32-3.94-13.02-5.84-19.55,.73-.3,1.46-.61,2.19-.91,4.13,6.86,8.27,13.72,12.4,20.57,.89,2.66,1.16,5.36,.46,8.11Z"/><path class="cls-1" d="M217.02,81.52c-5.88-.27-11.63-.79-15.81-5.84-2.08-2.52-.96-3.89,1.53-3.97,7.46-.23,14.13,2.02,19.39,7.54,.21,.22-.55,2.02-1.1,2.16-1.26,.34-2.67,.11-4.02,.11Z"/><path class="cls-8" d="M358.71,238.38c.1-1.82,.2-3.63,.31-5.45-.1,1.82-.2,3.63-.31,5.45Z"/><path class="cls-7" d="M215.7,99.95c.06,.75,.11,1.5,.17,2.24-1.82-1.9-3.63-3.8-5.45-5.7,1.25,.59,2.49,1.19,3.74,1.78v-.17c.77,.41,1.33,.99,1.54,1.85Z"/><path class="cls-2" d="M200.81,515.01c1.55,.63,3.11,1.25,4.66,1.88-.15,.17-.39,.5-.44,.47-1.42-.77-2.81-1.57-4.21-2.37l-.02,.02Z"/><path class="cls-7" d="M359.2,229.15c.43-1.26,.86-2.52,1.28-3.79l1.04,3.59-2.32,.19Z"/><path class="cls-5" d="M419.37,258.05l-1.87-3.42,1.87,3.42Z"/><path class="cls-2" d="M86.37,32.87l1.54-.1,.45,3.22c-.66-1.04-1.32-2.08-1.99-3.12Z"/><path class="cls-2" d="M66.07,150.13c-.19,.58-.39,1.16-.58,1.73-.22-.65-.45-1.29-.67-1.94,.45-.12,.87-.05,1.26,.21Z"/><path class="cls-2" d="M184.44,370.53l1.34-1.02,.45,.72c-.57,.13-1.15,.25-1.72,.38l-.07-.08Z"/><path class="cls-2" d="M100.58,94.6c-.15,.17-.34,.49-.45,.47-.4-.08-.78-.28-1.17-.44,.15-.17,.34-.49,.45-.47,.4,.08,.78,.29,1.17,.45Z"/><path class="cls-2" d="M200.83,514.99l-2.73-1.35h0c.91,.46,1.81,.92,2.72,1.37l.02-.02Z"/><path class="cls-2" d="M101.38,40.79l-.63-.48c.11,.03,.26,.02,.33,.09,.11,.12,.17,.3,.26,.45l.05-.05Z"/><path class="cls-2" d="M83.63,198.88l-.59-.63c.13,.03,.32,.03,.39,.11,.11,.14,.14,.34,.21,.51h0Z"/><path class="cls-2" d="M83.64,198.88l1.39,1.33-.06,.07-1.33-1.39h0Z"/><polygon class="cls-2" points="69.55 200.91 69.23 201.06 69.28 200.69 69.55 200.91"/><path class="cls-2" d="M98.67,333.74l.58,.69-.67-.6,.09-.09Z"/><path class="cls-2" d="M172.2,149.83l-.63-.65c.15,.03,.35,0,.42,.1,.12,.14,.15,.35,.22,.53l-.02,.02Z"/><path class="cls-2" d="M308.52,239.76c-.33-.14-.67-.28-1-.43,.36-.31,.71-.62,1.07-.94l-.07,1.36Z"/><path class="cls-2" d="M293.52,475.53l-.69,.64c.2-.24,.41-.48,.61-.72l.08,.08Z"/><path class="cls-2" d="M252.69,201.7l-1.16,16.17-1.04,.2c-2.62-6.22-5.03-12.53-7.89-18.63-12.35-26.33-27.77-50.81-45.07-74.14-.91-1.22-1.43-2.73-2.13-4.1l-.06,.06c9.96,7.64,20.12,15.03,29.78,23.03,4.38,3.63,7.77,8.47,12.46,13.72-.57-11.79-1.07-22.2-1.57-32.62,11.58,11.68,20.14,24.97,25.78,39.77,4.96,13.03,8.39,26.64,12.54,39.98,.3,.97,.89,1.84,1.35,2.76,.59-.83,1.4-1.59,1.73-2.52,1.34-3.83,2.52-7.71,3.8-11.56,.53-1.6,1.15-3.17,2.12-4.63,3.56,35.78-.39,70.72-10.28,105.08-.52,.48-1.05,.48-1.6,.05-.03-5.41-.06-10.82-.09-16.23-1.82-8.64-2.07-17.5-2.75-26.22-1.52-19.42-5.7-38.11-12.32-56.33-.94-2.57-1.75-5.15-2.01-7.88,.04,4.76,1.62,9.66-1.57,14.06Z"/><path class="cls-2" d="M343.97,109.04c-4.55-3.09-8.05-5.55-11.64-7.85-.83-.54-1.99-.57-3-.83,.12,1.06,.12,2.14,.39,3.16,1.04,3.92,2.49,7.76,3.17,11.74,.95,5.53,1.36,11.15,.99,17.11-4.55-6.44-8.55-13.38-13.79-19.2-7.38-8.18-15.47-15.75-23.67-23.12-4.36-3.92-5.02-4.03-.45-7.07,6.73-4.47,13.57-9.01,20.92-12.26,7.35-3.26,13.47-.71,16.69,6.86,3.68,8.67,6.1,17.86,9.06,26.83,.34,1.05,.61,2.12,1.34,4.63Z"/><path class="cls-7" d="M252.69,201.7c0-5.99,0-11.98,0-17.96,14.09,29.99,19.78,61.51,18.66,94.33-.79-1.17-2.08-2.26-2.29-3.53-2.91-17.4-5.25-34.91-8.67-52.21-1.41-7.1-5.06-13.76-7.7-20.63Z"/><path class="cls-2" d="M271.44,294.31l1.6-.05c-.68,1.08-1.37,2.16-2.05,3.24,.15-1.06,.3-2.12,.46-3.18Z"/><path class="cls-6" d="M308.42,241.08c-.07,.64-.13,1.28-.2,1.93,.09-.63,.18-1.25,.26-1.88l-.07-.05Z"/><path class="cls-3" d="M279.88,81.67l.56,.7c-.15-.03-.36-.01-.43-.1-.11-.14-.13-.36-.19-.54l.06-.06Z"/><path class="cls-3" d="M229.47,235.64l-.64-.54c.12,.03,.29,.03,.35,.11,.11,.14,.15,.33,.22,.5l.06-.07Z"/><path class="cls-3" d="M195.4,121.19c-.24-.23-.47-.45-.71-.68,.16,.03,.4,.02,.47,.12,.12,.17,.13,.41,.18,.62l.06-.06Z"/><path class="cls-2" d="M113.74,122.61l.99,1.84c-.77-.6-1.55-1.19-2.32-1.79,.42-.56,.86-.58,1.32-.05Z"/><path class="cls-3" d="M113.74,122.61l-.67-.06-.66,.11c-.4-.23-.61-.57-.65-1.03,.41-.36,.82-.72,1.23-1.08,.25,.68,.5,1.37,.74,2.06Z"/><path class="cls-7" d="M215.7,99.95l-1.53-1.85c.51,.62,1.02,1.23,1.53,1.85Z"/></svg>